<?xml version="1.0" encoding="UTF-8" standalone="no"?>
<!-- Created with Inkscape (http://www.inkscape.org/) -->

<svg
   version="1.1"
   id="svg2"
   xml:space="preserve"
   width="232.54668"
   height="317.81332"
   viewBox="0 0 232.54668 317.81332"
   sodipodi:docname="lmns.eps"
   xmlns:inkscape="http://www.inkscape.org/namespaces/inkscape"
   xmlns:sodipodi="http://sodipodi.sourceforge.net/DTD/sodipodi-0.dtd"
   xmlns="http://www.w3.org/2000/svg"
   xmlns:svg="http://www.w3.org/2000/svg"><defs
     id="defs6" /><sodipodi:namedview
     id="namedview4"
     pagecolor="#ffffff"
     bordercolor="#666666"
     borderopacity="1.0"
     inkscape:pageshadow="2"
     inkscape:pageopacity="0.0"
     inkscape:pagecheckerboard="0" /><g
     id="g8"
     inkscape:groupmode="layer"
     inkscape:label="ink_ext_XXXXXX"
     transform="matrix(1.3333333,0,0,-1.3333333,0,317.81333)"><g
       id="g10"
       transform="scale(0.1)"><path
         d="M 564.152,1313.72 C 521.176,1279.73 465.215,1262.8 396.246,1262.8 H 127.328 V 2373.57 H 0 V 1250.06 h 673.168 v 235.53 c -29.73,-80.66 -66.066,-137.94 -109.016,-171.87"
         style="fill:#000;fill-opacity:1;fill-rule:nonzero;stroke:none"
         id="path12" /><path
         d="m 1479.15,2247.56 c -33.41,-41.9 -61.82,-90.7 -85.14,-146.39 -23.35,-55.71 -42.96,-114.58 -58.88,-176.65 -15.91,-62.05 -28.65,-125.71 -38.18,-190.97 -9.56,-65.25 -17,-128.1 -22.3,-188.56 L 911.828,2383.64 H 779.734 V 1260.13 h 9.563 v 1094.86 l 44.539,-105.03 429.694,-989.83 h 15.92 c 0,48.79 1.02,106.07 3.17,171.87 2.1,65.76 7.17,135.27 15.11,208.46 7.97,73.22 19.33,146.93 34.23,221.2 14.84,74.25 35.01,143.48 60.46,207.68 25.47,64.18 57.01,120.67 94.68,169.47 37.65,48.8 83,84.34 136.08,106.64 V 1260.13 h 120.93 v 1123.51 c -56.25,0 -106.1,-12.23 -149.59,-36.6 -43.51,-24.42 -81.95,-57.58 -115.37,-99.48"
         style="fill:#000;fill-opacity:1;fill-rule:nonzero;stroke:none"
         id="path14" /><path
         d="M 811.609,1130.33 H 690.668 V 216.859 c -11.637,102.903 -30.969,206.61 -57.949,311.129 -26.957,104.481 -64.258,200.25 -111.871,287.231 -23.266,45.621 -48.93,87.793 -76.969,126.519 -28.055,38.723 -58.703,72.142 -92.039,100.262 -33.317,28.08 -69.293,49.84 -107.91,65.25 -38.617,15.38 -79.606,23.08 -122.989,23.08 H 0 V 6.80859 H 120.941 V 1119.18 c 42.332,0 82.27,-7.7 119.809,-23.08 37.539,-15.38 72.738,-36.87 105.535,-64.44 32.778,-27.61 62.942,-60.23 90.461,-97.871 27.496,-37.668 53.43,-79.34 77.774,-124.918 29.625,-57.293 55.257,-119.621 76.964,-186.98 21.684,-67.411 39.887,-136.082 54.727,-206.09 C 661.02,345.781 672.141,276 679.543,206.52 686.953,137.02 690.668,70.4805 690.668,6.80859 H 811.609 V 1130.33"
         style="fill:#000;fill-opacity:1;fill-rule:nonzero;stroke:none"
         id="path16" /><path
         d="m 1716.47,394.922 c -18.43,35.547 -42.76,67.379 -72.94,95.496 -30.23,28.082 -65.05,52.754 -104.45,74.004 -39.43,21.187 -80.13,41.359 -122.1,60.457 -94.22,45.621 -166.63,90.16 -217.32,133.68 -50.67,43.492 -84.75,84.339 -102.14,122.519 -17.41,38.223 -20.51,72.961 -9.23,104.25 11.26,31.302 31.74,57.012 61.45,77.182 34.79,25.48 77.29,42.18 127.48,50.15 50.17,7.94 101.86,3.42 155.12,-13.55 53.22,-16.96 105.73,-48.28 157.42,-93.88 51.7,-45.64 96.99,-109.269 135.93,-190.949 v 167.071 c -21.5,37.128 -53.75,67.888 -96.76,92.318 -42.99,24.39 -90.11,41.89 -141.29,52.51 -51.23,10.58 -103.67,13.52 -157.42,8.75 -53.78,-4.77 -102.67,-18.07 -146.69,-39.8 -44.03,-21.74 -80.14,-52.25 -108.28,-91.49 -3.11,-4.331 -5.99,-8.839 -8.75,-13.421 -22.29,-36.899 -33.49,-81.739 -33.49,-134.578 0,-45.621 9.23,-85.692 27.66,-120.161 1.79,-3.359 3.92,-6.539 5.83,-9.832 17.71,-30.507 40.15,-58.378 67.88,-83.269 30.72,-27.578 65.53,-52.25 104.45,-73.969 38.89,-21.762 78.83,-42.18 119.8,-61.269 89.07,-42.461 158.95,-84.352 209.63,-125.743 50.69,-41.359 85.75,-80.359 105.22,-116.949 19.43,-36.597 25.58,-70.019 18.42,-100.258 -7.17,-30.25 -23.57,-56.5 -49.15,-78.7691 -48.13,-42.4414 -104.19,-65.793 -168.19,-70.0235 -63.98,-4.25 -128.23,9.2735 -192.74,40.5821 -64.51,31.2695 -125.69,80.0895 -183.55,146.3905 -18.66,21.391 -36.17,44.649 -52.75,69.399 -10.55,-33.348 -24.86,-64.848 -43.47,-94.219 -0.4,-0.653 -0.87,-1.223 -1.29,-1.86 32.99,-33.8 69.84,-63.382 111.34,-87.9019 61.94,-36.5977 125.95,-61.8086 192,-75.5703 66.04,-13.77739 130.02,-15.91021 191.99,-6.37896 61.93,9.55856 114.9,31.83206 158.95,66.83986 27.64,23.3203 49.39,51.4413 65.28,84.3403 15.87,32.878 23.79,71.07 23.79,114.589 0,46.672 -9.19,87.762 -27.64,123.313"
         style="fill:#000;fill-opacity:1;fill-rule:nonzero;stroke:none"
         id="path18" /></g></g></svg>
