<svg xmlns="http://www.w3.org/2000/svg" viewBox="0 0 1785.69 305"><defs><style>.cls-1{fill:#000;}</style></defs><g id="Layer_2" data-name="Layer 2"><g id="Layer_1-2" data-name="Layer 1"><path class="cls-1" d="M152.5,0A152.5,152.5,0,1,0,305,152.5,152.5,152.5,0,0,0,152.5,0Zm0,298.05A145.55,145.55,0,1,1,298.05,152.5,145.54,145.54,0,0,1,152.5,298.05Z"/><path class="cls-1" d="M152.5,24.06A128.44,128.44,0,1,0,280.94,152.5,128.45,128.45,0,0,0,152.5,24.06Zm0,246.62A118.18,118.18,0,1,1,270.68,152.5,118.18,118.18,0,0,1,152.5,270.68Z"/><path class="cls-1" d="M43.22,152.49c67.21-4.37,104.9-42.06,109.27-109.27A109.29,109.29,0,0,0,43.22,152.49Z"/><path class="cls-1" d="M261.78,152.49c-67.21-4.37-104.89-42.06-109.27-109.27A109.3,109.3,0,0,1,261.78,152.49Z"/><path class="cls-1" d="M43.22,152.51c67.21,4.38,104.9,42.06,109.27,109.27A109.27,109.27,0,0,1,43.22,152.51Z"/><path class="cls-1" d="M261.78,152.51c-67.21,4.38-104.89,42.06-109.27,109.27A109.29,109.29,0,0,0,261.78,152.51Z"/><path class="cls-1" d="M394.73,92h32v21.13c9-12.41,21.15-24,42.58-24,20.12,0,34.11,9.79,41.52,24.61C522.26,98.9,537,89.11,558.2,89.11c30.35,0,48.93,19.32,48.93,53.44v89.11h-32V152.35c0-22.24-10.29-34.16-28.26-34.16-17.45,0-29.87,12.17-29.87,34.64v78.83H485v-79.6c0-21.7-10.6-33.87-28.31-33.87s-29.91,13.26-29.91,35v78.51h-32Z"/><path class="cls-1" d="M641,162.4v-.55c0-39.93,28.27-72.74,68.23-72.74,44.4,0,66.89,34.93,66.89,75.12,0,2.92-.25,5.82-.52,9H673c3.43,22.75,19.57,35.42,40.23,35.42,15.63,0,26.7-5.79,37.82-16.63l18.77,16.63c-13.2,15.92-31.48,26.22-57.1,26.22C672.2,234.87,641,205.52,641,162.4Zm103.38-10.34c-2.07-20.61-14.27-36.78-35.43-36.78-19.57,0-33.32,15.08-36.2,36.78Z"/><path class="cls-1" d="M811.06,92h32v31.45c8.7-20.87,24.83-35.17,49.5-34.07v33.81h-1.92c-28,0-47.58,18.29-47.58,55.29v53.15h-32Z"/><path class="cls-1" d="M923,92h32v31.45c8.73-20.87,24.81-35.17,49.47-34.07v33.81h-1.88c-28,0-47.59,18.29-47.59,55.29v53.15H923Z"/><path class="cls-1" d="M1035.37,40.18h34.38V70.6h-34.38ZM1036.71,92h32V231.66h-32Z"/><path class="cls-1" d="M1119.77,193.06V119.52h-17.72V92h17.72V53.68h32V92h37.57v27.49h-37.57v68.53c0,12.43,6.42,17.47,17.26,17.47a43.15,43.15,0,0,0,19.82-4.79v26.19c-7.94,4.53-16.92,7.12-28.82,7.12C1136.41,234,1119.77,223.76,1119.77,193.06Z"/><path class="cls-1" d="M1224.27,38.63h32v75.09c8.94-13.24,21.88-24.61,43.61-24.61,31.47,0,49.71,21.17,49.71,53.7v88.85h-32V152.35c0-21.7-10.85-34.16-29.85-34.16-18.52,0-31.46,13-31.46,34.64v78.83h-32Z"/><path class="cls-1" d="M1383.19,162.4v-.55c0-39.93,28.33-72.74,68.25-72.74,44.44,0,66.93,34.93,66.93,75.12,0,2.92-.26,5.82-.55,9H1415.24c3.4,22.75,19.53,35.42,40.2,35.42,15.59,0,26.69-5.79,37.8-16.63L1512,208.65c-13.18,15.92-31.46,26.22-57.09,26.22C1414.42,234.87,1383.19,205.52,1383.19,162.4Zm103.43-10.34c-2.1-20.61-14.26-36.78-35.41-36.78-19.6,0-33.36,15.08-36.28,36.78Z"/><path class="cls-1" d="M1535,92h32.8l28,95.71,31-96.24H1654l31.22,96.24L1713.78,92h32l-45.75,140.72h-28.57l-31.24-95.49-31.44,95.49h-28.55Z"/><path class="cls-1" d="M1743.37,211.6v-.12a21.16,21.16,0,1,1,42.32-.12v.12a21.16,21.16,0,1,1-42.32.12Zm39.89-.12v-.12a18.73,18.73,0,1,0-37.45.12v.12a18.73,18.73,0,1,0,37.45-.12Zm-27.48-11.43h10.33c5.11,0,8.88,2.31,8.88,7.29a6.78,6.78,0,0,1-4.86,6.82l5.59,7.9h-6.44l-4.75-6.93h-3.4v6.93h-5.35Zm10,10.7c2.43,0,3.77-1.22,3.77-3s-1.46-3-3.77-3h-4.62v6.08Z"/></g></g></svg>